<svg xmlns="http://www.w3.org/2000/svg" viewBox="0 0 64 64" width="32" height="32">
  <defs>
    <linearGradient id="docGradient" x1="0%" y1="0%" x2="100%" y2="100%">
      <stop offset="0%" style="stop-color:#4F46E5;stop-opacity:1" />
      <stop offset="100%" style="stop-color:#7C3AED;stop-opacity:1" />
    </linearGradient>
    <linearGradient id="starGradient" x1="0%" y1="0%" x2="100%" y2="100%">
      <stop offset="0%" style="stop-color:#FBBF24;stop-opacity:1" />
      <stop offset="100%" style="stop-color:#F59E0B;stop-opacity:1" />
    </linearGradient>
  </defs>

  <!-- Document/Paper -->
  <rect x="12" y="8" width="40" height="48" rx="3" fill="url(#docGradient)" />
  <rect x="14" y="10" width="36" height="44" rx="2" fill="white" opacity="0.95" />

  <!-- CV Lines -->
  <rect x="18" y="16" width="12" height="2" rx="1" fill="#4F46E5" opacity="0.7" />
  <rect x="18" y="22" width="20" height="1.5" rx="0.75" fill="#6B7280" opacity="0.5" />
  <rect x="18" y="27" width="18" height="1.5" rx="0.75" fill="#6B7280" opacity="0.5" />
  <rect x="18" y="32" width="22" height="1.5" rx="0.75" fill="#6B7280" opacity="0.5" />
  <rect x="18" y="37" width="16" height="1.5" rx="0.75" fill="#6B7280" opacity="0.5" />
  <rect x="18" y="42" width="20" height="1.5" rx="0.75" fill="#6B7280" opacity="0.5" />

  <!-- Enhancement Star -->
  <circle cx="48" cy="48" r="11" fill="url(#starGradient)" />
  <path d="M48 40 L49.5 45 L54.5 45.5 L51 49 L52 54 L48 51.5 L44 54 L45 49 L41.5 45.5 L46.5 45 Z" fill="white" />
</svg>
